# xmcd
#
# Track frame offsets:
# 150
# 17725
# 37094
# 49685
# 75123
# 88426
# 108132
# 121755
# 142505
# 161785
# 179560
# 198914
# 214157
# 235084
# 249015
# 257936
# 268769
# 283596
# 309750
#
# Disc length: 4373 seconds
#
# Revision: 0
# Processed by: cddbd v1.5.2PL0 Copyright (c) Steve Scherf et al.
# Submitted via: Audion 3.0.2 (http://www.panic.com/audion/)
#
DISCID=f8111313
DTITLE=philcollins - bebop
DYEAR=1900
DGENRE=
TTITLE0=bebop
TTITLE1=bebop
TTITLE2=bebop
TTITLE3=bebop
TTITLE4=bebop
TTITLE5=bebop
TTITLE6=bebop
TTITLE7=bebop
TTITLE8=bebop
TTITLE9=bebop
TTITLE10=bebop
TTITLE11=bebop
TTITLE12=bebop
TTITLE13=bebop
TTITLE14=bebop
TTITLE15=bebop
TTITLE16=bebop
TTITLE17=bebop
TTITLE18=bebop
EXTD=
EXTT0=
EXTT1=
EXTT2=
EXTT3=
EXTT4=
EXTT5=
EXTT6=
EXTT7=
EXTT8=
EXTT9=
EXTT10=
EXTT11=
EXTT12=
EXTT13=
EXTT14=
EXTT15=
EXTT16=
EXTT17=
EXTT18=
PLAYORDER=
